<svg xmlns="http://www.w3.org/2000/svg" xmlns:xlink="http://www.w3.org/1999/xlink" width="500" zoomAndPan="magnify" viewBox="0 0 375 374.999991" height="500" preserveAspectRatio="xMidYMid meet" version="1.0"><defs><g/><clipPath id="d6c08c6f85"><path d="M 132.414062 75.667969 L 242.664062 75.667969 L 242.664062 217.390625 L 132.414062 217.390625 Z M 132.414062 75.667969 " clip-rule="nonzero"/></clipPath></defs><g clip-path="url(#d6c08c6f85)"><path fill="#f3e6d6" d="M 171.789062 122.945312 C 158.761719 122.945312 148.160156 133.519531 148.160156 146.519531 L 148.160156 217.242188 L 132.414062 217.242188 L 132.414062 146.519531 C 132.414062 124.855469 150.078125 107.230469 171.789062 107.226562 C 193.5 107.226562 211.164062 124.851562 211.164062 146.519531 C 211.164062 168.183594 193.5 185.8125 171.785156 185.8125 L 171.785156 170.09375 C 184.8125 170.09375 195.410156 159.519531 195.410156 146.519531 C 195.414062 133.519531 184.816406 122.945312 171.789062 122.945312 Z M 171.792969 75.796875 L 132.414062 75.796875 L 132.414062 91.511719 L 171.789062 91.511719 C 202.1875 91.511719 226.914062 116.191406 226.914062 146.519531 C 226.914062 176.851562 202.183594 201.527344 171.789062 201.527344 L 171.789062 217.242188 C 210.871094 217.242188 242.664062 185.515625 242.664062 146.519531 C 242.667969 107.523438 210.871094 75.796875 171.792969 75.796875 Z M 171.792969 75.796875 " fill-opacity="1" fill-rule="nonzero"/></g><g fill="#f3e6d6" fill-opacity="1"><g transform="translate(123.409421, 248.641494)"><g><path d="M 10.355469 -21.957031 L 1.554688 -21.957031 L 1.554688 0 L 6.875 0 L 6.875 -6.46875 L 10.355469 -6.46875 C 15.457031 -6.46875 18.007812 -10.355469 18.007812 -14.183594 C 18.007812 -18.007812 15.457031 -21.957031 10.355469 -21.957031 Z M 10.355469 -11.476562 L 6.875 -11.476562 L 6.875 -16.792969 L 10.355469 -16.792969 C 12.003906 -16.792969 12.8125 -15.394531 12.8125 -14.089844 C 12.8125 -12.8125 12.003906 -11.476562 10.355469 -11.476562 Z M 10.355469 -11.476562 "/></g></g></g><g fill="#f3e6d6" fill-opacity="1"><g transform="translate(141.756891, 248.641494)"><g><path d="M 5.535156 -15.707031 L 5.347656 -16.824219 L 0.933594 -16.824219 L 0.933594 0 L 5.816406 0 L 5.816406 -9.332031 C 5.816406 -11.601562 7.621094 -12.535156 9.390625 -12.566406 C 9.953125 -12.566406 10.542969 -12.472656 11.039062 -12.316406 L 11.101562 -16.917969 C 10.449219 -17.074219 9.796875 -17.167969 9.207031 -17.167969 C 7.835938 -17.167969 6.625 -16.730469 5.535156 -15.707031 Z M 5.535156 -15.707031 "/></g></g></g><g fill="#f3e6d6" fill-opacity="1"><g transform="translate(153.884814, 248.641494)"><g><path d="M 18.070312 -8.398438 C 18.070312 -14.398438 13.589844 -17.386719 9.113281 -17.386719 C 4.601562 -17.386719 0.125 -14.398438 0.125 -8.398438 C 0.125 -2.425781 4.632812 0.558594 9.113281 0.558594 C 13.589844 0.558594 18.070312 -2.425781 18.070312 -8.398438 Z M 5.039062 -8.398438 C 5.039062 -11.257812 7.058594 -12.6875 9.113281 -12.6875 C 11.351562 -12.6875 13.15625 -11.257812 13.15625 -8.398438 C 13.15625 -5.566406 11.132812 -4.167969 9.113281 -4.167969 C 7.058594 -4.167969 5.039062 -5.566406 5.039062 -8.398438 Z M 5.039062 -8.398438 "/></g></g></g><g fill="#f3e6d6" fill-opacity="1"><g transform="translate(172.947526, 248.641494)"><g><path d="M 11.664062 -21.769531 L 1.585938 -21.769531 L 1.585938 0 L 11.601562 0 C 16.171875 0 18.566406 -3.515625 18.566406 -7.027344 C 18.566406 -8.863281 17.632812 -10.761719 15.332031 -11.941406 C 16.761719 -12.9375 17.417969 -14.460938 17.417969 -15.953125 C 17.417969 -18.816406 15.113281 -21.769531 11.664062 -21.769531 Z M 10.855469 -13.902344 L 6.84375 -13.902344 L 6.84375 -16.949219 L 10.917969 -16.949219 C 11.757812 -16.949219 12.222656 -16.203125 12.222656 -15.457031 C 12.222656 -14.679688 11.789062 -13.902344 10.855469 -13.902344 Z M 11.601562 -5.039062 L 6.84375 -5.039062 L 6.84375 -8.988281 L 11.601562 -8.988281 C 12.71875 -8.988281 13.28125 -7.992188 13.28125 -6.996094 C 13.28125 -6.003906 12.71875 -5.039062 11.601562 -5.039062 Z M 11.601562 -5.039062 "/></g></g></g><g fill="#f3e6d6" fill-opacity="1"><g transform="translate(192.103535, 248.641494)"><g><path d="M 8.582031 -17.105469 C 3.109375 -17.105469 0.433594 -13.25 0.433594 -8.644531 C 0.433594 -4.011719 3.203125 0.21875 8.523438 0.21875 C 10.140625 0.21875 11.789062 -0.25 12.9375 -1.679688 L 12.9375 0 L 17.820312 0 L 17.820312 -16.824219 L 12.9375 -16.824219 L 12.9375 -15.085938 C 11.847656 -16.484375 10.230469 -17.105469 8.582031 -17.105469 Z M 9.113281 -4.480469 C 6.625 -4.480469 5.347656 -6.5 5.347656 -8.523438 C 5.347656 -10.574219 6.59375 -12.597656 9.113281 -12.597656 C 11.226562 -12.597656 12.9375 -10.761719 12.9375 -8.523438 C 12.9375 -6.28125 11.226562 -4.480469 9.113281 -4.480469 Z M 9.113281 -4.480469 "/></g></g></g><g fill="#f3e6d6" fill-opacity="1"><g transform="translate(211.477236, 248.641494)"><g><path d="M 5.660156 -15.144531 L 5.660156 -16.824219 L 0.714844 -16.824219 L 0.714844 0 L 5.910156 0 L 5.910156 -9.144531 C 5.910156 -11.289062 7.652344 -12.535156 9.113281 -12.535156 C 10.449219 -12.535156 11.726562 -11.507812 11.726562 -9.238281 L 11.726562 0 L 16.703125 0 L 16.703125 -9.269531 C 16.730469 -13.464844 15.425781 -17.011719 10.636719 -17.074219 C 8.832031 -17.074219 6.84375 -16.640625 5.660156 -15.144531 Z M 5.660156 -15.144531 "/></g></g></g><g fill="#f3e6d6" fill-opacity="1"><g transform="translate(229.731412, 248.641494)"><g><path d="M 8.582031 -17.105469 C 3.109375 -17.105469 0.433594 -13.25 0.433594 -8.644531 C 0.433594 -4.011719 3.203125 0.21875 8.523438 0.21875 C 10.140625 0.21875 11.789062 -0.25 12.9375 -1.679688 L 12.9375 0 L 17.820312 0 L 17.820312 -21.925781 L 12.9375 -21.925781 L 12.9375 -15.300781 C 11.820312 -16.578125 10.230469 -17.105469 8.582031 -17.105469 Z M 9.113281 -4.480469 C 6.625 -4.480469 5.347656 -6.5 5.347656 -8.523438 C 5.347656 -10.574219 6.59375 -12.597656 9.113281 -12.597656 C 11.226562 -12.597656 12.9375 -10.761719 12.9375 -8.523438 C 12.9375 -6.28125 11.226562 -4.480469 9.113281 -4.480469 Z M 9.113281 -4.480469 "/></g></g></g><g fill="#f3e6d6" fill-opacity="1"><g transform="translate(58.552203, 264.486515)"><g><path d="M 6.421875 -5.9375 L 4.03125 -5.9375 L 4.03125 0 L 2.625 0 L 2.625 -5.9375 L 0.234375 -5.9375 L 0.234375 -7.046875 L 6.421875 -7.046875 Z M 6.421875 -5.9375 "/></g></g></g><g fill="#f3e6d6" fill-opacity="1"><g transform="translate(66.127845, 264.486515)"><g><path d="M 4.71875 -2.125 L 2.359375 -2.125 L 1.65625 0 L 0.15625 0 L 2.6875 -7.046875 L 4.453125 -7.046875 L 6.953125 0 L 5.421875 0 Z M 3.546875 -5.84375 L 2.71875 -3.234375 L 4.359375 -3.234375 Z M 3.546875 -5.84375 "/></g></g></g><g fill="#f3e6d6" fill-opacity="1"><g transform="translate(74.243843, 264.486515)"><g><path d="M 3.921875 -3.671875 L 6.890625 0 L 5.078125 0 L 2.890625 -2.84375 L 2.3125 -2.21875 L 2.3125 0 L 0.90625 0 L 0.90625 -7.046875 L 2.3125 -7.046875 L 2.3125 -3.640625 L 5.359375 -7.046875 L 7.03125 -7.046875 Z M 3.921875 -3.671875 "/></g></g></g><g fill="#f3e6d6" fill-opacity="1"><g transform="translate(82.431206, 264.486515)"><g><path d="M 2.3125 0 L 0.90625 0 L 0.90625 -7.046875 L 2.3125 -7.046875 Z M 2.3125 0 "/></g></g></g><g fill="#f3e6d6" fill-opacity="1"><g transform="translate(86.632226, 264.486515)"><g><path d="M 7.09375 0 L 5.15625 0 L 2.265625 -5.34375 C 2.296875 -4.707031 2.3125 -3.988281 2.3125 -3.1875 L 2.3125 0 L 0.90625 0 L 0.90625 -7.046875 L 2.78125 -7.046875 L 5.734375 -1.59375 C 5.703125 -2.226562 5.6875 -2.96875 5.6875 -3.8125 L 5.6875 -7.046875 L 7.078125 -7.046875 Z M 7.09375 0 "/></g></g></g><g fill="#f3e6d6" fill-opacity="1"><g transform="translate(95.604619, 264.486515)"><g><path d="M 4.125 -3.59375 L 6.96875 -3.59375 L 6.96875 0 L 5.84375 0 L 5.75 -1.140625 L 5.421875 -0.421875 C 5.035156 -0.046875 4.46875 0.140625 3.71875 0.140625 C 2.738281 0.140625 1.957031 -0.179688 1.375 -0.828125 C 0.800781 -1.484375 0.515625 -2.367188 0.515625 -3.484375 C 0.515625 -4.609375 0.84375 -5.503906 1.5 -6.171875 C 2.15625 -6.847656 2.984375 -7.1875 3.984375 -7.1875 C 4.898438 -7.1875 5.617188 -6.960938 6.140625 -6.515625 C 6.660156 -6.066406 6.957031 -5.476562 7.03125 -4.75 L 7.046875 -4.65625 L 5.625 -4.65625 L 5.609375 -4.75 C 5.429688 -5.664062 4.882812 -6.125 3.96875 -6.125 C 3.394531 -6.125 2.925781 -5.894531 2.5625 -5.4375 C 2.195312 -4.976562 2.015625 -4.351562 2.015625 -3.5625 C 2.015625 -2.707031 2.191406 -2.050781 2.546875 -1.59375 C 2.898438 -1.132812 3.359375 -0.90625 3.921875 -0.90625 C 4.378906 -0.90625 4.757812 -1.046875 5.0625 -1.328125 C 5.363281 -1.609375 5.550781 -1.992188 5.625 -2.484375 L 4.125 -2.484375 Z M 4.125 -3.59375 "/></g></g></g><g fill="#f3e6d6" fill-opacity="1"><g transform="translate(104.342523, 264.486515)"><g/></g></g><g fill="#f3e6d6" fill-opacity="1"><g transform="translate(107.544403, 264.486515)"><g><path d="M 4.046875 -2.71875 L 4.046875 0 L 2.65625 0 L 2.65625 -2.71875 L 0.15625 -7.046875 L 1.75 -7.046875 L 3.390625 -3.96875 L 4.984375 -7.046875 L 6.546875 -7.046875 Z M 4.046875 -2.71875 "/></g></g></g><g fill="#f3e6d6" fill-opacity="1"><g transform="translate(115.150638, 264.486515)"><g><path d="M 4 -7.1875 C 5.070312 -7.1875 5.921875 -6.851562 6.546875 -6.1875 C 7.171875 -5.519531 7.484375 -4.628906 7.484375 -3.515625 C 7.484375 -2.410156 7.171875 -1.523438 6.546875 -0.859375 C 5.921875 -0.191406 5.070312 0.140625 4 0.140625 C 2.925781 0.140625 2.078125 -0.191406 1.453125 -0.859375 C 0.828125 -1.523438 0.515625 -2.410156 0.515625 -3.515625 C 0.515625 -4.628906 0.820312 -5.519531 1.4375 -6.1875 C 2.0625 -6.851562 2.914062 -7.1875 4 -7.1875 Z M 2.515625 -1.59375 C 2.878906 -1.132812 3.375 -0.90625 4 -0.90625 C 4.625 -0.90625 5.113281 -1.132812 5.46875 -1.59375 C 5.820312 -2.0625 6 -2.703125 6 -3.515625 C 6 -4.335938 5.820312 -4.976562 5.46875 -5.4375 C 5.113281 -5.894531 4.625 -6.125 4 -6.125 C 3.363281 -6.125 2.867188 -5.894531 2.515625 -5.4375 C 2.160156 -4.976562 1.984375 -4.335938 1.984375 -3.515625 C 1.984375 -2.691406 2.160156 -2.050781 2.515625 -1.59375 Z M 2.515625 -1.59375 "/></g></g></g><g fill="#f3e6d6" fill-opacity="1"><g transform="translate(124.174006, 264.486515)"><g><path d="M 6.625 -7.046875 L 6.625 -2.859375 C 6.625 -2.523438 6.613281 -2.253906 6.59375 -2.046875 C 6.550781 -1.398438 6.289062 -0.875 5.8125 -0.46875 C 5.34375 -0.0625 4.644531 0.140625 3.71875 0.140625 C 2.789062 0.140625 2.085938 -0.0625 1.609375 -0.46875 C 1.140625 -0.875 0.882812 -1.398438 0.84375 -2.046875 C 0.820312 -2.253906 0.8125 -2.523438 0.8125 -2.859375 L 0.8125 -7.046875 L 2.21875 -7.046875 L 2.21875 -2.71875 C 2.21875 -2.476562 2.222656 -2.3125 2.234375 -2.21875 C 2.265625 -1.800781 2.40625 -1.476562 2.65625 -1.25 C 2.90625 -1.019531 3.257812 -0.90625 3.71875 -0.90625 C 4.175781 -0.90625 4.53125 -1.019531 4.78125 -1.25 C 5.03125 -1.476562 5.171875 -1.800781 5.203125 -2.21875 C 5.210938 -2.3125 5.21875 -2.476562 5.21875 -2.71875 L 5.21875 -7.046875 Z M 6.625 -7.046875 "/></g></g></g><g fill="#f3e6d6" fill-opacity="1"><g transform="translate(132.555074, 264.486515)"><g><path d="M 6.015625 -1.78125 C 6.097656 -0.9375 6.265625 -0.34375 6.515625 0 L 4.984375 0 C 4.804688 -0.46875 4.6875 -0.992188 4.625 -1.578125 C 4.53125 -2.367188 4.21875 -2.785156 3.6875 -2.828125 C 3.550781 -2.835938 3.363281 -2.84375 3.125 -2.84375 L 2.3125 -2.84375 L 2.3125 0 L 0.90625 0 L 0.90625 -7.046875 L 3.484375 -7.046875 C 3.867188 -7.046875 4.207031 -7.023438 4.5 -6.984375 C 5.0625 -6.921875 5.507812 -6.738281 5.84375 -6.4375 C 6.175781 -6.132812 6.34375 -5.695312 6.34375 -5.125 C 6.34375 -4.675781 6.21875 -4.304688 5.96875 -4.015625 C 5.726562 -3.734375 5.394531 -3.53125 4.96875 -3.40625 C 5.570312 -3.175781 5.921875 -2.632812 6.015625 -1.78125 Z M 2.3125 -3.890625 L 3.28125 -3.890625 C 3.5625 -3.890625 3.753906 -3.890625 3.859375 -3.890625 C 4.523438 -3.953125 4.859375 -4.289062 4.859375 -4.90625 C 4.859375 -5.226562 4.78125 -5.460938 4.625 -5.609375 C 4.46875 -5.765625 4.238281 -5.863281 3.9375 -5.90625 C 3.769531 -5.925781 3.570312 -5.9375 3.34375 -5.9375 L 2.3125 -5.9375 Z M 2.3125 -3.890625 "/></g></g></g><g fill="#f3e6d6" fill-opacity="1"><g transform="translate(140.446771, 264.486515)"><g/></g></g><g fill="#f3e6d6" fill-opacity="1"><g transform="translate(143.648656, 264.486515)"><g><path d="M 4.359375 -6.984375 C 4.929688 -6.921875 5.390625 -6.703125 5.734375 -6.328125 C 6.085938 -5.960938 6.265625 -5.46875 6.265625 -4.84375 C 6.265625 -4.226562 6.082031 -3.734375 5.71875 -3.359375 C 5.363281 -2.992188 4.910156 -2.773438 4.359375 -2.703125 C 4.066406 -2.671875 3.726562 -2.65625 3.34375 -2.65625 L 2.3125 -2.65625 L 2.3125 0 L 0.90625 0 L 0.90625 -7.046875 L 3.34375 -7.046875 C 3.738281 -7.046875 4.078125 -7.023438 4.359375 -6.984375 Z M 3.953125 -3.796875 C 4.503906 -3.878906 4.78125 -4.226562 4.78125 -4.84375 C 4.78125 -5.46875 4.503906 -5.816406 3.953125 -5.890625 C 3.796875 -5.910156 3.585938 -5.921875 3.328125 -5.921875 L 2.3125 -5.921875 L 2.3125 -3.765625 L 3.328125 -3.765625 C 3.585938 -3.765625 3.796875 -3.773438 3.953125 -3.796875 Z M 3.953125 -3.796875 "/></g></g></g><g fill="#f3e6d6" fill-opacity="1"><g transform="translate(151.224301, 264.486515)"><g><path d="M 6.015625 -1.78125 C 6.097656 -0.9375 6.265625 -0.34375 6.515625 0 L 4.984375 0 C 4.804688 -0.46875 4.6875 -0.992188 4.625 -1.578125 C 4.53125 -2.367188 4.21875 -2.785156 3.6875 -2.828125 C 3.550781 -2.835938 3.363281 -2.84375 3.125 -2.84375 L 2.3125 -2.84375 L 2.3125 0 L 0.90625 0 L 0.90625 -7.046875 L 3.484375 -7.046875 C 3.867188 -7.046875 4.207031 -7.023438 4.5 -6.984375 C 5.0625 -6.921875 5.507812 -6.738281 5.84375 -6.4375 C 6.175781 -6.132812 6.34375 -5.695312 6.34375 -5.125 C 6.34375 -4.675781 6.21875 -4.304688 5.96875 -4.015625 C 5.726562 -3.734375 5.394531 -3.53125 4.96875 -3.40625 C 5.570312 -3.175781 5.921875 -2.632812 6.015625 -1.78125 Z M 2.3125 -3.890625 L 3.28125 -3.890625 C 3.5625 -3.890625 3.753906 -3.890625 3.859375 -3.890625 C 4.523438 -3.953125 4.859375 -4.289062 4.859375 -4.90625 C 4.859375 -5.226562 4.78125 -5.460938 4.625 -5.609375 C 4.46875 -5.765625 4.238281 -5.863281 3.9375 -5.90625 C 3.769531 -5.925781 3.570312 -5.9375 3.34375 -5.9375 L 2.3125 -5.9375 Z M 2.3125 -3.890625 "/></g></g></g><g fill="#f3e6d6" fill-opacity="1"><g transform="translate(159.115997, 264.486515)"><g><path d="M 4 -7.1875 C 5.070312 -7.1875 5.921875 -6.851562 6.546875 -6.1875 C 7.171875 -5.519531 7.484375 -4.628906 7.484375 -3.515625 C 7.484375 -2.410156 7.171875 -1.523438 6.546875 -0.859375 C 5.921875 -0.191406 5.070312 0.140625 4 0.140625 C 2.925781 0.140625 2.078125 -0.191406 1.453125 -0.859375 C 0.828125 -1.523438 0.515625 -2.410156 0.515625 -3.515625 C 0.515625 -4.628906 0.820312 -5.519531 1.4375 -6.1875 C 2.0625 -6.851562 2.914062 -7.1875 4 -7.1875 Z M 2.515625 -1.59375 C 2.878906 -1.132812 3.375 -0.90625 4 -0.90625 C 4.625 -0.90625 5.113281 -1.132812 5.46875 -1.59375 C 5.820312 -2.0625 6 -2.703125 6 -3.515625 C 6 -4.335938 5.820312 -4.976562 5.46875 -5.4375 C 5.113281 -5.894531 4.625 -6.125 4 -6.125 C 3.363281 -6.125 2.867188 -5.894531 2.515625 -5.4375 C 2.160156 -4.976562 1.984375 -4.335938 1.984375 -3.515625 C 1.984375 -2.691406 2.160156 -2.050781 2.515625 -1.59375 Z M 2.515625 -1.59375 "/></g></g></g><g fill="#f3e6d6" fill-opacity="1"><g transform="translate(168.139365, 264.486515)"><g><path d="M 5.53125 -7.046875 L 5.53125 -2.890625 C 5.53125 -2.535156 5.519531 -2.210938 5.5 -1.921875 C 5.457031 -1.273438 5.226562 -0.769531 4.8125 -0.40625 C 4.394531 -0.0390625 3.785156 0.140625 2.984375 0.140625 C 2.191406 0.140625 1.585938 -0.0625 1.171875 -0.46875 C 0.765625 -0.882812 0.550781 -1.460938 0.53125 -2.203125 L 0.515625 -2.5625 L 1.921875 -2.5625 L 1.953125 -2.203125 C 1.992188 -1.335938 2.367188 -0.90625 3.078125 -0.90625 C 3.703125 -0.90625 4.046875 -1.269531 4.109375 -2 C 4.117188 -2.144531 4.125 -2.394531 4.125 -2.75 L 4.125 -7.046875 Z M 5.53125 -7.046875 "/></g></g></g><g fill="#f3e6d6" fill-opacity="1"><g transform="translate(175.439746, 264.486515)"><g><path d="M 5.984375 -1.109375 L 5.984375 0 L 0.90625 0 L 0.90625 -7.046875 L 5.890625 -7.046875 L 5.890625 -5.9375 L 2.3125 -5.9375 L 2.3125 -4.078125 L 5.625 -4.078125 L 5.625 -2.96875 L 2.3125 -2.96875 L 2.3125 -1.109375 Z M 5.984375 -1.109375 "/></g></g></g><g fill="#f3e6d6" fill-opacity="1"><g transform="translate(182.944025, 264.486515)"><g><path d="M 3.921875 -7.1875 C 4.847656 -7.1875 5.566406 -6.960938 6.078125 -6.515625 C 6.597656 -6.066406 6.894531 -5.476562 6.96875 -4.75 L 6.984375 -4.65625 L 5.578125 -4.65625 L 5.546875 -4.75 C 5.367188 -5.664062 4.820312 -6.125 3.90625 -6.125 C 3.332031 -6.125 2.875 -5.894531 2.53125 -5.4375 C 2.1875 -4.976562 2.015625 -4.351562 2.015625 -3.5625 C 2.015625 -2.707031 2.1875 -2.050781 2.53125 -1.59375 C 2.875 -1.132812 3.328125 -0.90625 3.890625 -0.90625 C 4.335938 -0.90625 4.695312 -1.03125 4.96875 -1.28125 C 5.238281 -1.53125 5.421875 -1.882812 5.515625 -2.34375 L 5.546875 -2.4375 L 6.9375 -2.4375 L 6.921875 -2.34375 C 6.847656 -1.570312 6.535156 -0.960938 5.984375 -0.515625 C 5.429688 -0.078125 4.710938 0.140625 3.828125 0.140625 C 2.835938 0.140625 2.035156 -0.179688 1.421875 -0.828125 C 0.816406 -1.484375 0.515625 -2.367188 0.515625 -3.484375 C 0.515625 -4.609375 0.832031 -5.503906 1.46875 -6.171875 C 2.113281 -6.847656 2.929688 -7.1875 3.921875 -7.1875 Z M 3.921875 -7.1875 "/></g></g></g><g fill="#f3e6d6" fill-opacity="1"><g transform="translate(191.488218, 264.486515)"><g><path d="M 6.421875 -5.9375 L 4.03125 -5.9375 L 4.03125 0 L 2.625 0 L 2.625 -5.9375 L 0.234375 -5.9375 L 0.234375 -7.046875 L 6.421875 -7.046875 Z M 6.421875 -5.9375 "/></g></g></g><g fill="#f3e6d6" fill-opacity="1"><g transform="translate(199.063863, 264.486515)"><g><path d="M 3.25 -7.1875 C 4.050781 -7.1875 4.660156 -6.984375 5.078125 -6.578125 C 5.503906 -6.179688 5.757812 -5.644531 5.84375 -4.96875 L 4.40625 -4.96875 C 4.363281 -5.332031 4.238281 -5.613281 4.03125 -5.8125 C 3.832031 -6.019531 3.550781 -6.125 3.1875 -6.125 C 2.894531 -6.125 2.65625 -6.050781 2.46875 -5.90625 C 2.289062 -5.769531 2.203125 -5.566406 2.203125 -5.296875 C 2.203125 -4.992188 2.3125 -4.757812 2.53125 -4.59375 C 2.75 -4.425781 3.140625 -4.273438 3.703125 -4.140625 C 4.472656 -3.960938 5.039062 -3.691406 5.40625 -3.328125 C 5.769531 -2.972656 5.953125 -2.507812 5.953125 -1.9375 C 5.953125 -1.300781 5.695312 -0.796875 5.1875 -0.421875 C 4.6875 -0.046875 4.070312 0.140625 3.34375 0.140625 C 2.488281 0.140625 1.804688 -0.046875 1.296875 -0.421875 C 0.785156 -0.796875 0.492188 -1.347656 0.421875 -2.078125 L 1.859375 -2.078125 C 1.941406 -1.703125 2.113281 -1.410156 2.375 -1.203125 C 2.644531 -1.003906 2.960938 -0.90625 3.328125 -0.90625 C 3.648438 -0.90625 3.921875 -0.984375 4.140625 -1.140625 C 4.367188 -1.304688 4.484375 -1.523438 4.484375 -1.796875 C 4.484375 -2.097656 4.375 -2.335938 4.15625 -2.515625 C 3.945312 -2.703125 3.585938 -2.859375 3.078125 -2.984375 C 2.285156 -3.171875 1.691406 -3.421875 1.296875 -3.734375 C 0.910156 -4.054688 0.71875 -4.519531 0.71875 -5.125 C 0.71875 -5.75 0.960938 -6.25 1.453125 -6.625 C 1.941406 -7 2.539062 -7.1875 3.25 -7.1875 Z M 3.25 -7.1875 "/></g></g></g><g fill="#f3e6d6" fill-opacity="1"><g transform="translate(206.48658, 264.486515)"><g/></g></g><g fill="#f3e6d6" fill-opacity="1"><g transform="translate(209.688465, 264.486515)"><g><path d="M 6.421875 -5.9375 L 4.03125 -5.9375 L 4.03125 0 L 2.625 0 L 2.625 -5.9375 L 0.234375 -5.9375 L 0.234375 -7.046875 L 6.421875 -7.046875 Z M 6.421875 -5.9375 "/></g></g></g><g fill="#f3e6d6" fill-opacity="1"><g transform="translate(217.26411, 264.486515)"><g><path d="M 4 -7.1875 C 5.070312 -7.1875 5.921875 -6.851562 6.546875 -6.1875 C 7.171875 -5.519531 7.484375 -4.628906 7.484375 -3.515625 C 7.484375 -2.410156 7.171875 -1.523438 6.546875 -0.859375 C 5.921875 -0.191406 5.070312 0.140625 4 0.140625 C 2.925781 0.140625 2.078125 -0.191406 1.453125 -0.859375 C 0.828125 -1.523438 0.515625 -2.410156 0.515625 -3.515625 C 0.515625 -4.628906 0.820312 -5.519531 1.4375 -6.1875 C 2.0625 -6.851562 2.914062 -7.1875 4 -7.1875 Z M 2.515625 -1.59375 C 2.878906 -1.132812 3.375 -0.90625 4 -0.90625 C 4.625 -0.90625 5.113281 -1.132812 5.46875 -1.59375 C 5.820312 -2.0625 6 -2.703125 6 -3.515625 C 6 -4.335938 5.820312 -4.976562 5.46875 -5.4375 C 5.113281 -5.894531 4.625 -6.125 4 -6.125 C 3.363281 -6.125 2.867188 -5.894531 2.515625 -5.4375 C 2.160156 -4.976562 1.984375 -4.335938 1.984375 -3.515625 C 1.984375 -2.691406 2.160156 -2.050781 2.515625 -1.59375 Z M 2.515625 -1.59375 "/></g></g></g><g fill="#f3e6d6" fill-opacity="1"><g transform="translate(226.287479, 264.486515)"><g/></g></g><g fill="#f3e6d6" fill-opacity="1"><g transform="translate(229.489364, 264.486515)"><g><path d="M 6.421875 -5.9375 L 4.03125 -5.9375 L 4.03125 0 L 2.625 0 L 2.625 -5.9375 L 0.234375 -5.9375 L 0.234375 -7.046875 L 6.421875 -7.046875 Z M 6.421875 -5.9375 "/></g></g></g><g fill="#f3e6d6" fill-opacity="1"><g transform="translate(237.065009, 264.486515)"><g><path d="M 7.015625 -7.046875 L 7.015625 0 L 5.609375 0 L 5.609375 -2.890625 L 2.3125 -2.890625 L 2.3125 0 L 0.90625 0 L 0.90625 -7.046875 L 2.3125 -7.046875 L 2.3125 -4.015625 L 5.609375 -4.015625 L 5.609375 -7.046875 Z M 7.015625 -7.046875 "/></g></g></g><g fill="#f3e6d6" fill-opacity="1"><g transform="translate(245.955843, 264.486515)"><g><path d="M 5.984375 -1.109375 L 5.984375 0 L 0.90625 0 L 0.90625 -7.046875 L 5.890625 -7.046875 L 5.890625 -5.9375 L 2.3125 -5.9375 L 2.3125 -4.078125 L 5.625 -4.078125 L 5.625 -2.96875 L 2.3125 -2.96875 L 2.3125 -1.109375 Z M 5.984375 -1.109375 "/></g></g></g><g fill="#f3e6d6" fill-opacity="1"><g transform="translate(253.460111, 264.486515)"><g/></g></g><g fill="#f3e6d6" fill-opacity="1"><g transform="translate(256.661984, 264.486515)"><g><path d="M 7.09375 0 L 5.15625 0 L 2.265625 -5.34375 C 2.296875 -4.707031 2.3125 -3.988281 2.3125 -3.1875 L 2.3125 0 L 0.90625 0 L 0.90625 -7.046875 L 2.78125 -7.046875 L 5.734375 -1.59375 C 5.703125 -2.226562 5.6875 -2.96875 5.6875 -3.8125 L 5.6875 -7.046875 L 7.078125 -7.046875 Z M 7.09375 0 "/></g></g></g><g fill="#f3e6d6" fill-opacity="1"><g transform="translate(265.634381, 264.486515)"><g><path d="M 5.984375 -1.109375 L 5.984375 0 L 0.90625 0 L 0.90625 -7.046875 L 5.890625 -7.046875 L 5.890625 -5.9375 L 2.3125 -5.9375 L 2.3125 -4.078125 L 5.625 -4.078125 L 5.625 -2.96875 L 2.3125 -2.96875 L 2.3125 -1.109375 Z M 5.984375 -1.109375 "/></g></g></g><g fill="#f3e6d6" fill-opacity="1"><g transform="translate(273.13866, 264.486515)"><g><path d="M 5.25 0 L 3.515625 -2.65625 L 1.859375 0 L 0.1875 0 L 2.71875 -3.546875 L 0.375 -7.046875 L 2 -7.046875 L 3.578125 -4.4375 L 5.21875 -7.046875 L 6.84375 -7.046875 L 4.390625 -3.578125 L 6.890625 0 Z M 5.25 0 "/></g></g></g><g fill="#f3e6d6" fill-opacity="1"><g transform="translate(281.25465, 264.486515)"><g><path d="M 6.421875 -5.9375 L 4.03125 -5.9375 L 4.03125 0 L 2.625 0 L 2.625 -5.9375 L 0.234375 -5.9375 L 0.234375 -7.046875 L 6.421875 -7.046875 Z M 6.421875 -5.9375 "/></g></g></g><g fill="#f3e6d6" fill-opacity="1"><g transform="translate(288.830294, 264.486515)"><g/></g></g><g fill="#f3e6d6" fill-opacity="1"><g transform="translate(292.032168, 264.486515)"><g><path d="M 5.984375 -1.171875 L 5.984375 0 L 0.90625 0 L 0.90625 -7.046875 L 2.3125 -7.046875 L 2.3125 -1.171875 Z M 5.984375 -1.171875 "/></g></g></g><g fill="#f3e6d6" fill-opacity="1"><g transform="translate(299.41411, 264.486515)"><g><path d="M 5.984375 -1.109375 L 5.984375 0 L 0.90625 0 L 0.90625 -7.046875 L 5.890625 -7.046875 L 5.890625 -5.9375 L 2.3125 -5.9375 L 2.3125 -4.078125 L 5.625 -4.078125 L 5.625 -2.96875 L 2.3125 -2.96875 L 2.3125 -1.109375 Z M 5.984375 -1.109375 "/></g></g></g><g fill="#f3e6d6" fill-opacity="1"><g transform="translate(306.91839, 264.486515)"><g><path d="M 4.578125 0 L 2.8125 0 L 0.328125 -7.046875 L 1.859375 -7.046875 L 3.71875 -1.078125 L 5.625 -7.046875 L 7.125 -7.046875 Z M 4.578125 0 "/></g></g></g><g fill="#f3e6d6" fill-opacity="1"><g transform="translate(315.156716, 264.486515)"><g><path d="M 5.984375 -1.109375 L 5.984375 0 L 0.90625 0 L 0.90625 -7.046875 L 5.890625 -7.046875 L 5.890625 -5.9375 L 2.3125 -5.9375 L 2.3125 -4.078125 L 5.625 -4.078125 L 5.625 -2.96875 L 2.3125 -2.96875 L 2.3125 -1.109375 Z M 5.984375 -1.109375 "/></g></g></g><g fill="#f3e6d6" fill-opacity="1"><g transform="translate(322.660996, 264.486515)"><g><path d="M 5.984375 -1.171875 L 5.984375 0 L 0.90625 0 L 0.90625 -7.046875 L 2.3125 -7.046875 L 2.3125 -1.171875 Z M 5.984375 -1.171875 "/></g></g></g></svg>