<svg xmlns="http://www.w3.org/2000/svg" xmlns:xlink="http://www.w3.org/1999/xlink" width="500" zoomAndPan="magnify" viewBox="0 0 375 374.999991" height="500" preserveAspectRatio="xMidYMid meet" version="1.0"><defs><g/><clipPath id="ead32ed022"><path d="M 124.902344 75.589844 L 238.902344 75.589844 L 238.902344 222.566406 L 124.902344 222.566406 Z M 124.902344 75.589844 " clip-rule="nonzero"/></clipPath></defs><g clip-path="url(#ead32ed022)"><path fill="#444560" d="M 165.617188 124.621094 C 152.144531 124.621094 141.1875 135.589844 141.1875 149.066406 L 141.1875 222.40625 L 124.902344 222.40625 L 124.902344 149.066406 C 124.902344 126.601562 143.167969 108.328125 165.617188 108.324219 C 188.066406 108.324219 206.328125 126.601562 206.328125 149.066406 C 206.328125 171.53125 188.066406 189.8125 165.613281 189.8125 L 165.613281 173.515625 C 179.082031 173.515625 190.042969 162.546875 190.042969 149.066406 C 190.046875 135.589844 179.085938 124.625 165.617188 124.621094 Z M 165.621094 75.730469 L 124.902344 75.730469 L 124.902344 92.027344 L 165.617188 92.027344 C 197.046875 92.027344 222.617188 117.617188 222.617188 149.066406 C 222.617188 180.519531 197.042969 206.109375 165.617188 206.109375 L 165.617188 222.40625 C 206.027344 222.40625 238.902344 189.507812 238.902344 149.066406 C 238.90625 108.628906 206.03125 75.730469 165.621094 75.730469 Z M 165.621094 75.730469 " fill-opacity="1" fill-rule="nonzero"/></g><g fill="#444560" fill-opacity="1"><g transform="translate(117.12337, 253.467089)"><g><path d="M 10.628906 -22.535156 L 1.597656 -22.535156 L 1.597656 0 L 7.054688 0 L 7.054688 -6.640625 L 10.628906 -6.640625 C 15.863281 -6.640625 18.480469 -10.628906 18.480469 -14.554688 C 18.480469 -18.480469 15.863281 -22.535156 10.628906 -22.535156 Z M 10.628906 -11.777344 L 7.054688 -11.777344 L 7.054688 -17.238281 L 10.628906 -17.238281 C 12.320312 -17.238281 13.152344 -15.800781 13.152344 -14.460938 C 13.152344 -13.152344 12.320312 -11.777344 10.628906 -11.777344 Z M 10.628906 -11.777344 "/></g></g></g><g fill="#444560" fill-opacity="1"><g transform="translate(135.952564, 253.467089)"><g><path d="M 5.683594 -16.121094 L 5.488281 -17.269531 L 0.957031 -17.269531 L 0.957031 0 L 5.96875 0 L 5.96875 -9.574219 C 5.96875 -11.90625 7.820312 -12.863281 9.640625 -12.894531 C 10.214844 -12.894531 10.820312 -12.800781 11.332031 -12.640625 L 11.394531 -17.363281 C 10.726562 -17.523438 10.054688 -17.621094 9.449219 -17.621094 C 8.042969 -17.621094 6.800781 -17.171875 5.683594 -16.121094 Z M 5.683594 -16.121094 "/></g></g></g><g fill="#444560" fill-opacity="1"><g transform="translate(148.398903, 253.467089)"><g><path d="M 18.546875 -8.617188 C 18.546875 -14.777344 13.949219 -17.84375 9.351562 -17.84375 C 4.722656 -17.84375 0.128906 -14.777344 0.128906 -8.617188 C 0.128906 -2.488281 4.757812 0.574219 9.351562 0.574219 C 13.949219 0.574219 18.546875 -2.488281 18.546875 -8.617188 Z M 5.171875 -8.617188 C 5.171875 -11.554688 7.246094 -13.023438 9.351562 -13.023438 C 11.652344 -13.023438 13.503906 -11.554688 13.503906 -8.617188 C 13.503906 -5.714844 11.425781 -4.277344 9.351562 -4.277344 C 7.246094 -4.277344 5.171875 -5.714844 5.171875 -8.617188 Z M 5.171875 -8.617188 "/></g></g></g><g fill="#444560" fill-opacity="1"><g transform="translate(167.962117, 253.467089)"><g><path d="M 11.96875 -22.34375 L 1.628906 -22.34375 L 1.628906 0 L 11.90625 0 C 16.597656 0 19.054688 -3.605469 19.054688 -7.214844 C 19.054688 -9.097656 18.097656 -11.042969 15.738281 -12.257812 C 17.203125 -13.277344 17.875 -14.84375 17.875 -16.375 C 17.875 -19.3125 15.511719 -22.34375 11.96875 -22.34375 Z M 11.140625 -14.269531 L 7.023438 -14.269531 L 7.023438 -17.394531 L 11.203125 -17.394531 C 12.066406 -17.394531 12.542969 -16.628906 12.542969 -15.863281 C 12.542969 -15.066406 12.097656 -14.269531 11.140625 -14.269531 Z M 11.90625 -5.171875 L 7.023438 -5.171875 L 7.023438 -9.226562 L 11.90625 -9.226562 C 13.054688 -9.226562 13.628906 -8.203125 13.628906 -7.183594 C 13.628906 -6.160156 13.054688 -5.171875 11.90625 -5.171875 Z M 11.90625 -5.171875 "/></g></g></g><g fill="#444560" fill-opacity="1"><g transform="translate(187.621076, 253.467089)"><g><path d="M 8.808594 -17.554688 C 3.191406 -17.554688 0.445312 -13.597656 0.445312 -8.875 C 0.445312 -4.117188 3.289062 0.222656 8.746094 0.222656 C 10.40625 0.222656 12.097656 -0.253906 13.277344 -1.722656 L 13.277344 0 L 18.289062 0 L 18.289062 -17.269531 L 13.277344 -17.269531 L 13.277344 -15.480469 C 12.160156 -16.917969 10.5 -17.554688 8.808594 -17.554688 Z M 9.351562 -4.597656 C 6.800781 -4.597656 5.488281 -6.671875 5.488281 -8.746094 C 5.488281 -10.851562 6.765625 -12.925781 9.351562 -12.925781 C 11.523438 -12.925781 13.277344 -11.042969 13.277344 -8.746094 C 13.277344 -6.449219 11.523438 -4.597656 9.351562 -4.597656 Z M 9.351562 -4.597656 "/></g></g></g><g fill="#444560" fill-opacity="1"><g transform="translate(207.503439, 253.467089)"><g><path d="M 5.808594 -15.542969 L 5.808594 -17.269531 L 0.734375 -17.269531 L 0.734375 0 L 6.066406 0 L 6.066406 -9.382812 C 6.066406 -11.585938 7.851562 -12.863281 9.351562 -12.863281 C 10.726562 -12.863281 12.035156 -11.808594 12.035156 -9.480469 L 12.035156 0 L 17.140625 0 L 17.140625 -9.511719 C 17.171875 -13.820312 15.832031 -17.460938 10.917969 -17.523438 C 9.066406 -17.523438 7.023438 -17.078125 5.808594 -15.542969 Z M 5.808594 -15.542969 "/></g></g></g><g fill="#444560" fill-opacity="1"><g transform="translate(226.236885, 253.467089)"><g><path d="M 8.808594 -17.554688 C 3.191406 -17.554688 0.445312 -13.597656 0.445312 -8.875 C 0.445312 -4.117188 3.289062 0.222656 8.746094 0.222656 C 10.40625 0.222656 12.097656 -0.253906 13.277344 -1.722656 L 13.277344 0 L 18.289062 0 L 18.289062 -22.503906 L 13.277344 -22.503906 L 13.277344 -15.703125 C 12.128906 -17.011719 10.5 -17.554688 8.808594 -17.554688 Z M 9.351562 -4.597656 C 6.800781 -4.597656 5.488281 -6.671875 5.488281 -8.746094 C 5.488281 -10.851562 6.765625 -12.925781 9.351562 -12.925781 C 11.523438 -12.925781 13.277344 -11.042969 13.277344 -8.746094 C 13.277344 -6.449219 11.523438 -4.597656 9.351562 -4.597656 Z M 9.351562 -4.597656 "/></g></g></g><g fill="#444560" fill-opacity="1"><g transform="translate(53.014821, 271.643448)"><g><path d="M 6.5625 -6.0625 L 4.109375 -6.0625 L 4.109375 0 L 2.671875 0 L 2.671875 -6.0625 L 0.234375 -6.0625 L 0.234375 -7.1875 L 6.5625 -7.1875 Z M 6.5625 -6.0625 "/></g></g></g><g fill="#444560" fill-opacity="1"><g transform="translate(60.763978, 271.643448)"><g><path d="M 4.828125 -2.171875 L 2.40625 -2.171875 L 1.6875 0 L 0.15625 0 L 2.75 -7.1875 L 4.546875 -7.1875 L 7.09375 0 L 5.53125 0 Z M 3.625 -5.96875 L 2.765625 -3.296875 L 4.453125 -3.296875 Z M 3.625 -5.96875 "/></g></g></g><g fill="#444560" fill-opacity="1"><g transform="translate(69.065898, 271.643448)"><g><path d="M 4 -3.75 L 7.03125 0 L 5.1875 0 L 2.953125 -2.90625 L 2.359375 -2.265625 L 2.359375 0 L 0.921875 0 L 0.921875 -7.1875 L 2.359375 -7.1875 L 2.359375 -3.71875 L 5.46875 -7.1875 L 7.1875 -7.1875 Z M 4 -3.75 "/></g></g></g><g fill="#444560" fill-opacity="1"><g transform="translate(77.440824, 271.643448)"><g><path d="M 2.359375 0 L 0.921875 0 L 0.921875 -7.1875 L 2.359375 -7.1875 Z M 2.359375 0 "/></g></g></g><g fill="#444560" fill-opacity="1"><g transform="translate(81.737795, 271.643448)"><g><path d="M 7.25 0 L 5.28125 0 L 2.3125 -5.46875 C 2.34375 -4.8125 2.359375 -4.070312 2.359375 -3.25 L 2.359375 0 L 0.921875 0 L 0.921875 -7.1875 L 2.828125 -7.1875 L 5.859375 -1.625 C 5.828125 -2.269531 5.8125 -3.023438 5.8125 -3.890625 L 5.8125 -7.1875 L 7.234375 -7.1875 Z M 7.25 0 "/></g></g></g><g fill="#444560" fill-opacity="1"><g transform="translate(90.915803, 271.643448)"><g><path d="M 4.21875 -3.671875 L 7.125 -3.671875 L 7.125 0 L 5.96875 0 L 5.875 -1.171875 L 5.546875 -0.4375 C 5.148438 -0.0507812 4.566406 0.140625 3.796875 0.140625 C 2.796875 0.140625 2 -0.1875 1.40625 -0.84375 C 0.820312 -1.507812 0.53125 -2.410156 0.53125 -3.546875 C 0.53125 -4.703125 0.863281 -5.625 1.53125 -6.3125 C 2.195312 -7 3.046875 -7.34375 4.078125 -7.34375 C 5.015625 -7.34375 5.742188 -7.113281 6.265625 -6.65625 C 6.796875 -6.195312 7.101562 -5.597656 7.1875 -4.859375 L 7.1875 -4.75 L 5.75 -4.75 L 5.734375 -4.859375 C 5.546875 -5.796875 4.984375 -6.265625 4.046875 -6.265625 C 3.460938 -6.265625 2.984375 -6.023438 2.609375 -5.546875 C 2.234375 -5.078125 2.046875 -4.441406 2.046875 -3.640625 C 2.046875 -2.765625 2.226562 -2.09375 2.59375 -1.625 C 2.957031 -1.15625 3.429688 -0.921875 4.015625 -0.921875 C 4.472656 -0.921875 4.859375 -1.0625 5.171875 -1.34375 C 5.484375 -1.632812 5.675781 -2.035156 5.75 -2.546875 L 4.21875 -2.546875 Z M 4.21875 -3.671875 "/></g></g></g><g fill="#444560" fill-opacity="1"><g transform="translate(99.853919, 271.643448)"><g/></g></g><g fill="#444560" fill-opacity="1"><g transform="translate(103.12879, 271.643448)"><g><path d="M 4.140625 -2.78125 L 4.140625 0 L 2.703125 0 L 2.703125 -2.78125 L 0.171875 -7.1875 L 1.796875 -7.1875 L 3.46875 -4.046875 L 5.09375 -7.1875 L 6.6875 -7.1875 Z M 4.140625 -2.78125 "/></g></g></g><g fill="#444560" fill-opacity="1"><g transform="translate(110.90923, 271.643448)"><g><path d="M 4.078125 -7.34375 C 5.179688 -7.34375 6.050781 -7.003906 6.6875 -6.328125 C 7.320312 -5.648438 7.640625 -4.738281 7.640625 -3.59375 C 7.640625 -2.457031 7.320312 -1.550781 6.6875 -0.875 C 6.050781 -0.195312 5.179688 0.140625 4.078125 0.140625 C 2.984375 0.140625 2.117188 -0.195312 1.484375 -0.875 C 0.847656 -1.550781 0.53125 -2.457031 0.53125 -3.59375 C 0.53125 -4.738281 0.84375 -5.648438 1.46875 -6.328125 C 2.101562 -7.003906 2.972656 -7.34375 4.078125 -7.34375 Z M 2.578125 -1.625 C 2.941406 -1.15625 3.441406 -0.921875 4.078125 -0.921875 C 4.722656 -0.921875 5.222656 -1.15625 5.578125 -1.625 C 5.941406 -2.101562 6.125 -2.757812 6.125 -3.59375 C 6.125 -4.4375 5.941406 -5.09375 5.578125 -5.5625 C 5.222656 -6.03125 4.722656 -6.265625 4.078125 -6.265625 C 3.429688 -6.265625 2.925781 -6.03125 2.5625 -5.5625 C 2.207031 -5.09375 2.03125 -4.4375 2.03125 -3.59375 C 2.03125 -2.75 2.210938 -2.09375 2.578125 -1.625 Z M 2.578125 -1.625 "/></g></g></g><g fill="#444560" fill-opacity="1"><g transform="translate(120.139383, 271.643448)"><g><path d="M 6.765625 -7.1875 L 6.765625 -2.921875 C 6.765625 -2.585938 6.757812 -2.304688 6.75 -2.078125 C 6.695312 -1.429688 6.425781 -0.898438 5.9375 -0.484375 C 5.457031 -0.0664062 4.742188 0.140625 3.796875 0.140625 C 2.847656 0.140625 2.128906 -0.0664062 1.640625 -0.484375 C 1.160156 -0.898438 0.898438 -1.429688 0.859375 -2.078125 C 0.835938 -2.304688 0.828125 -2.585938 0.828125 -2.921875 L 0.828125 -7.1875 L 2.265625 -7.1875 L 2.265625 -2.78125 C 2.265625 -2.539062 2.269531 -2.367188 2.28125 -2.265625 C 2.3125 -1.835938 2.453125 -1.503906 2.703125 -1.265625 C 2.960938 -1.035156 3.328125 -0.921875 3.796875 -0.921875 C 4.265625 -0.921875 4.625 -1.035156 4.875 -1.265625 C 5.132812 -1.503906 5.28125 -1.835938 5.3125 -2.265625 C 5.332031 -2.367188 5.34375 -2.539062 5.34375 -2.78125 L 5.34375 -7.1875 Z M 6.765625 -7.1875 "/></g></g></g><g fill="#444560" fill-opacity="1"><g transform="translate(128.712468, 271.643448)"><g><path d="M 6.140625 -1.8125 C 6.234375 -0.957031 6.40625 -0.351562 6.65625 0 L 5.078125 0 C 4.910156 -0.476562 4.796875 -1.015625 4.734375 -1.609375 C 4.628906 -2.421875 4.304688 -2.847656 3.765625 -2.890625 C 3.628906 -2.890625 3.441406 -2.890625 3.203125 -2.890625 L 2.359375 -2.890625 L 2.359375 0 L 0.921875 0 L 0.921875 -7.1875 L 3.546875 -7.1875 C 3.941406 -7.1875 4.289062 -7.171875 4.59375 -7.140625 C 5.164062 -7.066406 5.625 -6.875 5.96875 -6.5625 C 6.3125 -6.257812 6.484375 -5.816406 6.484375 -5.234375 C 6.484375 -4.773438 6.359375 -4.398438 6.109375 -4.109375 C 5.859375 -3.816406 5.515625 -3.609375 5.078125 -3.484375 C 5.691406 -3.242188 6.046875 -2.6875 6.140625 -1.8125 Z M 2.359375 -3.96875 L 3.359375 -3.96875 C 3.640625 -3.96875 3.832031 -3.972656 3.9375 -3.984375 C 4.625 -4.046875 4.96875 -4.390625 4.96875 -5.015625 C 4.96875 -5.335938 4.882812 -5.578125 4.71875 -5.734375 C 4.5625 -5.890625 4.328125 -5.988281 4.015625 -6.03125 C 3.847656 -6.050781 3.648438 -6.0625 3.421875 -6.0625 L 2.359375 -6.0625 Z M 2.359375 -3.96875 "/></g></g></g><g fill="#444560" fill-opacity="1"><g transform="translate(136.784934, 271.643448)"><g/></g></g><g fill="#444560" fill-opacity="1"><g transform="translate(140.05981, 271.643448)"><g><path d="M 4.453125 -7.140625 C 5.035156 -7.078125 5.503906 -6.851562 5.859375 -6.46875 C 6.222656 -6.09375 6.40625 -5.585938 6.40625 -4.953125 C 6.40625 -4.316406 6.21875 -3.804688 5.84375 -3.421875 C 5.476562 -3.046875 5.015625 -2.828125 4.453125 -2.765625 C 4.160156 -2.722656 3.816406 -2.703125 3.421875 -2.703125 L 2.359375 -2.703125 L 2.359375 0 L 0.921875 0 L 0.921875 -7.1875 L 3.421875 -7.1875 C 3.816406 -7.1875 4.160156 -7.171875 4.453125 -7.140625 Z M 4.03125 -3.875 C 4.601562 -3.957031 4.890625 -4.316406 4.890625 -4.953125 C 4.890625 -5.585938 4.601562 -5.945312 4.03125 -6.03125 C 3.875 -6.050781 3.660156 -6.0625 3.390625 -6.0625 L 2.359375 -6.0625 L 2.359375 -3.84375 L 3.390625 -3.84375 C 3.660156 -3.84375 3.875 -3.851562 4.03125 -3.875 Z M 4.03125 -3.875 "/></g></g></g><g fill="#444560" fill-opacity="1"><g transform="translate(147.808967, 271.643448)"><g><path d="M 6.140625 -1.8125 C 6.234375 -0.957031 6.40625 -0.351562 6.65625 0 L 5.078125 0 C 4.910156 -0.476562 4.796875 -1.015625 4.734375 -1.609375 C 4.628906 -2.421875 4.304688 -2.847656 3.765625 -2.890625 C 3.628906 -2.890625 3.441406 -2.890625 3.203125 -2.890625 L 2.359375 -2.890625 L 2.359375 0 L 0.921875 0 L 0.921875 -7.1875 L 3.546875 -7.1875 C 3.941406 -7.1875 4.289062 -7.171875 4.59375 -7.140625 C 5.164062 -7.066406 5.625 -6.875 5.96875 -6.5625 C 6.3125 -6.257812 6.484375 -5.816406 6.484375 -5.234375 C 6.484375 -4.773438 6.359375 -4.398438 6.109375 -4.109375 C 5.859375 -3.816406 5.515625 -3.609375 5.078125 -3.484375 C 5.691406 -3.242188 6.046875 -2.6875 6.140625 -1.8125 Z M 2.359375 -3.96875 L 3.359375 -3.96875 C 3.640625 -3.96875 3.832031 -3.972656 3.9375 -3.984375 C 4.625 -4.046875 4.96875 -4.390625 4.96875 -5.015625 C 4.96875 -5.335938 4.882812 -5.578125 4.71875 -5.734375 C 4.5625 -5.890625 4.328125 -5.988281 4.015625 -6.03125 C 3.847656 -6.050781 3.648438 -6.0625 3.421875 -6.0625 L 2.359375 -6.0625 Z M 2.359375 -3.96875 "/></g></g></g><g fill="#444560" fill-opacity="1"><g transform="translate(155.881434, 271.643448)"><g><path d="M 4.078125 -7.34375 C 5.179688 -7.34375 6.050781 -7.003906 6.6875 -6.328125 C 7.320312 -5.648438 7.640625 -4.738281 7.640625 -3.59375 C 7.640625 -2.457031 7.320312 -1.550781 6.6875 -0.875 C 6.050781 -0.195312 5.179688 0.140625 4.078125 0.140625 C 2.984375 0.140625 2.117188 -0.195312 1.484375 -0.875 C 0.847656 -1.550781 0.53125 -2.457031 0.53125 -3.59375 C 0.53125 -4.738281 0.84375 -5.648438 1.46875 -6.328125 C 2.101562 -7.003906 2.972656 -7.34375 4.078125 -7.34375 Z M 2.578125 -1.625 C 2.941406 -1.15625 3.441406 -0.921875 4.078125 -0.921875 C 4.722656 -0.921875 5.222656 -1.15625 5.578125 -1.625 C 5.941406 -2.101562 6.125 -2.757812 6.125 -3.59375 C 6.125 -4.4375 5.941406 -5.09375 5.578125 -5.5625 C 5.222656 -6.03125 4.722656 -6.265625 4.078125 -6.265625 C 3.429688 -6.265625 2.925781 -6.03125 2.5625 -5.5625 C 2.207031 -5.09375 2.03125 -4.4375 2.03125 -3.59375 C 2.03125 -2.75 2.210938 -2.09375 2.578125 -1.625 Z M 2.578125 -1.625 "/></g></g></g><g fill="#444560" fill-opacity="1"><g transform="translate(165.111587, 271.643448)"><g><path d="M 5.65625 -7.1875 L 5.65625 -2.953125 C 5.65625 -2.597656 5.644531 -2.265625 5.625 -1.953125 C 5.582031 -1.304688 5.347656 -0.796875 4.921875 -0.421875 C 4.492188 -0.046875 3.867188 0.140625 3.046875 0.140625 C 2.234375 0.140625 1.617188 -0.0664062 1.203125 -0.484375 C 0.785156 -0.898438 0.566406 -1.488281 0.546875 -2.25 L 0.53125 -2.609375 L 1.96875 -2.609375 L 1.984375 -2.25 C 2.035156 -1.363281 2.421875 -0.921875 3.140625 -0.921875 C 3.773438 -0.921875 4.128906 -1.296875 4.203125 -2.046875 C 4.203125 -2.191406 4.203125 -2.441406 4.203125 -2.796875 L 4.203125 -7.1875 Z M 5.65625 -7.1875 "/></g></g></g><g fill="#444560" fill-opacity="1"><g transform="translate(172.579145, 271.643448)"><g><path d="M 6.125 -1.140625 L 6.125 0 L 0.921875 0 L 0.921875 -7.1875 L 6.015625 -7.1875 L 6.015625 -6.0625 L 2.359375 -6.0625 L 2.359375 -4.171875 L 5.75 -4.171875 L 5.75 -3.03125 L 2.359375 -3.03125 L 2.359375 -1.140625 Z M 6.125 -1.140625 "/></g></g></g><g fill="#444560" fill-opacity="1"><g transform="translate(180.255297, 271.643448)"><g><path d="M 4.015625 -7.34375 C 4.953125 -7.34375 5.679688 -7.113281 6.203125 -6.65625 C 6.734375 -6.195312 7.039062 -5.597656 7.125 -4.859375 L 7.125 -4.75 L 5.6875 -4.75 L 5.671875 -4.859375 C 5.484375 -5.796875 4.921875 -6.265625 3.984375 -6.265625 C 3.398438 -6.265625 2.929688 -6.03125 2.578125 -5.5625 C 2.222656 -5.09375 2.046875 -4.453125 2.046875 -3.640625 C 2.046875 -2.765625 2.222656 -2.09375 2.578125 -1.625 C 2.929688 -1.15625 3.394531 -0.921875 3.96875 -0.921875 C 4.425781 -0.921875 4.796875 -1.050781 5.078125 -1.3125 C 5.359375 -1.570312 5.546875 -1.929688 5.640625 -2.390625 L 5.65625 -2.484375 L 7.09375 -2.484375 L 7.078125 -2.390625 C 7.003906 -1.609375 6.6875 -0.988281 6.125 -0.53125 C 5.5625 -0.0820312 4.820312 0.140625 3.90625 0.140625 C 2.894531 0.140625 2.078125 -0.191406 1.453125 -0.859375 C 0.835938 -1.523438 0.53125 -2.421875 0.53125 -3.546875 C 0.53125 -4.703125 0.851562 -5.625 1.5 -6.3125 C 2.15625 -7 2.992188 -7.34375 4.015625 -7.34375 Z M 4.015625 -7.34375 "/></g></g></g><g fill="#444560" fill-opacity="1"><g transform="translate(188.995255, 271.643448)"><g><path d="M 6.5625 -6.0625 L 4.109375 -6.0625 L 4.109375 0 L 2.671875 0 L 2.671875 -6.0625 L 0.234375 -6.0625 L 0.234375 -7.1875 L 6.5625 -7.1875 Z M 6.5625 -6.0625 "/></g></g></g><g fill="#444560" fill-opacity="1"><g transform="translate(196.744413, 271.643448)"><g><path d="M 3.3125 -7.34375 C 4.132812 -7.34375 4.757812 -7.132812 5.1875 -6.71875 C 5.625 -6.3125 5.882812 -5.765625 5.96875 -5.078125 L 4.5 -5.078125 C 4.457031 -5.453125 4.332031 -5.742188 4.125 -5.953125 C 3.914062 -6.160156 3.628906 -6.265625 3.265625 -6.265625 C 2.960938 -6.265625 2.71875 -6.191406 2.53125 -6.046875 C 2.34375 -5.898438 2.25 -5.6875 2.25 -5.40625 C 2.25 -5.101562 2.359375 -4.863281 2.578125 -4.6875 C 2.804688 -4.507812 3.207031 -4.359375 3.78125 -4.234375 C 4.5625 -4.046875 5.140625 -3.769531 5.515625 -3.40625 C 5.890625 -3.039062 6.078125 -2.566406 6.078125 -1.984375 C 6.078125 -1.328125 5.816406 -0.804688 5.296875 -0.421875 C 4.785156 -0.046875 4.160156 0.140625 3.421875 0.140625 C 2.546875 0.140625 1.847656 -0.0507812 1.328125 -0.4375 C 0.804688 -0.820312 0.507812 -1.382812 0.4375 -2.125 L 1.90625 -2.125 C 1.976562 -1.738281 2.148438 -1.441406 2.421875 -1.234375 C 2.691406 -1.023438 3.015625 -0.921875 3.390625 -0.921875 C 3.722656 -0.921875 4.003906 -1.003906 4.234375 -1.171875 C 4.460938 -1.335938 4.578125 -1.554688 4.578125 -1.828125 C 4.578125 -2.140625 4.46875 -2.390625 4.25 -2.578125 C 4.03125 -2.765625 3.660156 -2.921875 3.140625 -3.046875 C 2.328125 -3.234375 1.722656 -3.488281 1.328125 -3.8125 C 0.929688 -4.132812 0.734375 -4.609375 0.734375 -5.234375 C 0.734375 -5.867188 0.984375 -6.378906 1.484375 -6.765625 C 1.984375 -7.148438 2.59375 -7.34375 3.3125 -7.34375 Z M 3.3125 -7.34375 "/></g></g></g><g fill="#444560" fill-opacity="1"><g transform="translate(204.337121, 271.643448)"><g/></g></g><g fill="#444560" fill-opacity="1"><g transform="translate(207.611996, 271.643448)"><g><path d="M 6.5625 -6.0625 L 4.109375 -6.0625 L 4.109375 0 L 2.671875 0 L 2.671875 -6.0625 L 0.234375 -6.0625 L 0.234375 -7.1875 L 6.5625 -7.1875 Z M 6.5625 -6.0625 "/></g></g></g><g fill="#444560" fill-opacity="1"><g transform="translate(215.361154, 271.643448)"><g><path d="M 4.078125 -7.34375 C 5.179688 -7.34375 6.050781 -7.003906 6.6875 -6.328125 C 7.320312 -5.648438 7.640625 -4.738281 7.640625 -3.59375 C 7.640625 -2.457031 7.320312 -1.550781 6.6875 -0.875 C 6.050781 -0.195312 5.179688 0.140625 4.078125 0.140625 C 2.984375 0.140625 2.117188 -0.195312 1.484375 -0.875 C 0.847656 -1.550781 0.53125 -2.457031 0.53125 -3.59375 C 0.53125 -4.738281 0.84375 -5.648438 1.46875 -6.328125 C 2.101562 -7.003906 2.972656 -7.34375 4.078125 -7.34375 Z M 2.578125 -1.625 C 2.941406 -1.15625 3.441406 -0.921875 4.078125 -0.921875 C 4.722656 -0.921875 5.222656 -1.15625 5.578125 -1.625 C 5.941406 -2.101562 6.125 -2.757812 6.125 -3.59375 C 6.125 -4.4375 5.941406 -5.09375 5.578125 -5.5625 C 5.222656 -6.03125 4.722656 -6.265625 4.078125 -6.265625 C 3.429688 -6.265625 2.925781 -6.03125 2.5625 -5.5625 C 2.207031 -5.09375 2.03125 -4.4375 2.03125 -3.59375 C 2.03125 -2.75 2.210938 -2.09375 2.578125 -1.625 Z M 2.578125 -1.625 "/></g></g></g><g fill="#444560" fill-opacity="1"><g transform="translate(224.591307, 271.643448)"><g/></g></g><g fill="#444560" fill-opacity="1"><g transform="translate(227.866182, 271.643448)"><g><path d="M 6.5625 -6.0625 L 4.109375 -6.0625 L 4.109375 0 L 2.671875 0 L 2.671875 -6.0625 L 0.234375 -6.0625 L 0.234375 -7.1875 L 6.5625 -7.1875 Z M 6.5625 -6.0625 "/></g></g></g><g fill="#444560" fill-opacity="1"><g transform="translate(235.61534, 271.643448)"><g><path d="M 7.15625 -7.1875 L 7.15625 0 L 5.734375 0 L 5.734375 -2.953125 L 2.359375 -2.953125 L 2.359375 0 L 0.921875 0 L 0.921875 -7.1875 L 2.359375 -7.1875 L 2.359375 -4.09375 L 5.734375 -4.09375 L 5.734375 -7.1875 Z M 7.15625 -7.1875 "/></g></g></g><g fill="#444560" fill-opacity="1"><g transform="translate(244.709905, 271.643448)"><g><path d="M 6.125 -1.140625 L 6.125 0 L 0.921875 0 L 0.921875 -7.1875 L 6.015625 -7.1875 L 6.015625 -6.0625 L 2.359375 -6.0625 L 2.359375 -4.171875 L 5.75 -4.171875 L 5.75 -3.03125 L 2.359375 -3.03125 L 2.359375 -1.140625 Z M 6.125 -1.140625 "/></g></g></g><g fill="#444560" fill-opacity="1"><g transform="translate(252.386057, 271.643448)"><g/></g></g><g fill="#444560" fill-opacity="1"><g transform="translate(255.660932, 271.643448)"><g><path d="M 7.25 0 L 5.28125 0 L 2.3125 -5.46875 C 2.34375 -4.8125 2.359375 -4.070312 2.359375 -3.25 L 2.359375 0 L 0.921875 0 L 0.921875 -7.1875 L 2.828125 -7.1875 L 5.859375 -1.625 C 5.828125 -2.269531 5.8125 -3.023438 5.8125 -3.890625 L 5.8125 -7.1875 L 7.234375 -7.1875 Z M 7.25 0 "/></g></g></g><g fill="#444560" fill-opacity="1"><g transform="translate(264.83894, 271.643448)"><g><path d="M 6.125 -1.140625 L 6.125 0 L 0.921875 0 L 0.921875 -7.1875 L 6.015625 -7.1875 L 6.015625 -6.0625 L 2.359375 -6.0625 L 2.359375 -4.171875 L 5.75 -4.171875 L 5.75 -3.03125 L 2.359375 -3.03125 L 2.359375 -1.140625 Z M 6.125 -1.140625 "/></g></g></g><g fill="#444560" fill-opacity="1"><g transform="translate(272.515092, 271.643448)"><g><path d="M 5.375 0 L 3.59375 -2.71875 L 1.90625 0 L 0.203125 0 L 2.765625 -3.625 L 0.375 -7.1875 L 2.046875 -7.1875 L 3.640625 -4.53125 L 5.34375 -7.1875 L 7 -7.1875 L 4.484375 -3.65625 L 7.046875 0 Z M 5.375 0 "/></g></g></g><g fill="#444560" fill-opacity="1"><g transform="translate(280.817014, 271.643448)"><g><path d="M 6.5625 -6.0625 L 4.109375 -6.0625 L 4.109375 0 L 2.671875 0 L 2.671875 -6.0625 L 0.234375 -6.0625 L 0.234375 -7.1875 L 6.5625 -7.1875 Z M 6.5625 -6.0625 "/></g></g></g><g fill="#444560" fill-opacity="1"><g transform="translate(288.566158, 271.643448)"><g/></g></g><g fill="#444560" fill-opacity="1"><g transform="translate(291.84102, 271.643448)"><g><path d="M 6.125 -1.203125 L 6.125 0 L 0.921875 0 L 0.921875 -7.1875 L 2.359375 -7.1875 L 2.359375 -1.203125 Z M 6.125 -1.203125 "/></g></g></g><g fill="#444560" fill-opacity="1"><g transform="translate(299.392007, 271.643448)"><g><path d="M 6.125 -1.140625 L 6.125 0 L 0.921875 0 L 0.921875 -7.1875 L 6.015625 -7.1875 L 6.015625 -6.0625 L 2.359375 -6.0625 L 2.359375 -4.171875 L 5.75 -4.171875 L 5.75 -3.03125 L 2.359375 -3.03125 L 2.359375 -1.140625 Z M 6.125 -1.140625 "/></g></g></g><g fill="#444560" fill-opacity="1"><g transform="translate(307.068159, 271.643448)"><g><path d="M 4.671875 0 L 2.875 0 L 0.328125 -7.1875 L 1.890625 -7.1875 L 3.796875 -1.109375 L 5.75 -7.1875 L 7.28125 -7.1875 Z M 4.671875 0 "/></g></g></g><g fill="#444560" fill-opacity="1"><g transform="translate(315.495219, 271.643448)"><g><path d="M 6.125 -1.140625 L 6.125 0 L 0.921875 0 L 0.921875 -7.1875 L 6.015625 -7.1875 L 6.015625 -6.0625 L 2.359375 -6.0625 L 2.359375 -4.171875 L 5.75 -4.171875 L 5.75 -3.03125 L 2.359375 -3.03125 L 2.359375 -1.140625 Z M 6.125 -1.140625 "/></g></g></g><g fill="#444560" fill-opacity="1"><g transform="translate(323.171371, 271.643448)"><g><path d="M 6.125 -1.203125 L 6.125 0 L 0.921875 0 L 0.921875 -7.1875 L 2.359375 -7.1875 L 2.359375 -1.203125 Z M 6.125 -1.203125 "/></g></g></g></svg>